<svg xmlns="http://www.w3.org/2000/svg" width="24" height="24" viewBox="0 0 24 24"><g><g><g><path fill="#44c123" d="M11.332 6.477v8.38l-3.236-3.235a.725.725 0 1 0-1.026 1.026l4.474 4.474a.725.725 0 0 0 1.026 0l4.475-4.474a.723.723 0 0 0 0-1.026.725.725 0 0 0-1.026 0l-3.236 3.235v-8.38a.726.726 0 0 0-1.451 0z"/></g><g><path fill="#44c123" d="M2.168 11.72c0-5.548 4.513-10.06 10.06-10.06 5.549 0 10.062 4.512 10.062 10.06 0 5.548-4.513 10.06-10.061 10.06S2.168 17.269 2.168 11.72zm21.78 0C23.949 5.258 18.692 0 12.229 0 5.768 0 .509 5.258.509 11.72c0 6.462 5.259 11.72 11.72 11.72 6.463 0 11.72-5.258 11.72-11.72z"/></g></g></g></svg>