<svg xmlns="http://www.w3.org/2000/svg" width="21" height="20" viewBox="0 0 21 20"><g><g opacity=".6"><g opacity=".6"><path fill="#909399" d="M10.288 2.333a3.826 3.826 0 0 1 3.815 3.815 3.826 3.826 0 0 1-3.815 3.815 3.826 3.826 0 0 1-3.816-3.815 3.826 3.826 0 0 1 3.816-3.815zm0 8.997a5.183 5.183 0 0 0 5.182-5.182A5.17 5.17 0 0 0 10.288.98c-2.862 0-5.183 2.321-5.183 5.167 0 2.845 2.321 5.182 5.183 5.182z"/><path fill="909399" stroke="#909399" stroke-miterlimit="50" stroke-width=".5" d="M10.288 2.333a3.826 3.826 0 0 1 3.815 3.815 3.826 3.826 0 0 1-3.815 3.815 3.826 3.826 0 0 1-3.816-3.815 3.826 3.826 0 0 1 3.816-3.815zm0 8.997a5.183 5.183 0 0 0 5.182-5.182A5.17 5.17 0 0 0 10.288.98c-2.862 0-5.183 2.321-5.183 5.167 0 2.845 2.321 5.182 5.183 5.182z"/></g><g opacity=".6"><path fill="#909399" d="M7.14 13.603H13.5a5.131 5.131 0 0 1 5.086 4.45H2.053c.334-2.495 2.48-4.45 5.087-4.45zm12.176 5.818a.678.678 0 0 0 .684-.684c0-3.576-2.909-6.501-6.501-6.501H7.14c-3.576 0-6.501 2.909-6.501 6.501 0 .382.302.684.683.684z"/><path fill="909399" stroke="#909399" stroke-miterlimit="50" stroke-width=".5" d="M7.14 13.603H13.5a5.131 5.131 0 0 1 5.086 4.45H2.053c.334-2.495 2.48-4.45 5.087-4.45zm12.176 5.818a.678.678 0 0 0 .684-.684c0-3.576-2.909-6.501-6.501-6.501H7.14c-3.576 0-6.501 2.909-6.501 6.501 0 .382.302.684.683.684z"/></g></g></g></svg>