<svg xmlns="http://www.w3.org/2000/svg" width="61" height="61" viewBox="0 0 61 61"><g><g><g><g><g><path fill="#fff" d="M30.41 56.54c-14.416 0-26.15-11.734-26.15-26.15 0-14.417 11.734-26.151 26.15-26.151 14.417 0 26.151 11.734 26.151 26.15 0 14.417-11.734 26.152-26.15 26.152zm0-56.56C13.634-.02 0 13.613 0 30.39 0 47.165 13.647 60.8 30.41 60.8c16.776 0 30.41-13.647 30.41-30.41 0-16.776-13.634-30.41-30.41-30.41z"/></g><g><path fill="#fff" d="M25.816 40.497V20.282L41.573 30.39zm20.86-11.895L24.848 14.595a2.131 2.131 0 0 0-3.278 1.788v28.001c0 .782.422 1.49 1.105 1.863.323.173.67.26 1.018.26.398 0 .795-.111 1.155-.335l21.83-13.994a2.142 2.142 0 0 0 .98-1.788 2.156 2.156 0 0 0-.98-1.788z"/></g></g></g></g></g></svg>