<svg xmlns="http://www.w3.org/2000/svg" width="18" height="17" viewBox="0 0 18 17"><g><g><path fill="#d6d6d6" d="M17.297 7.455c.338-.33.458-.813.312-1.262a1.224 1.224 0 0 0-.994-.838l-4.158-.604a.543.543 0 0 1-.41-.298L10.19.686A1.224 1.224 0 0 0 9.085 0c-.472 0-.896.263-1.104.686L6.12 4.454a.544.544 0 0 1-.409.297l-4.157.604a1.224 1.224 0 0 0-.995.838c-.145.45-.026.933.312 1.262l3.008 2.932a.544.544 0 0 1 .157.482l-.71 4.14c-.063.364.033.719.269.998a1.244 1.244 0 0 0 1.518.3l3.718-1.955a.557.557 0 0 1 .506 0l3.718 1.955c.181.095.374.143.573.143a1.235 1.235 0 0 0 1.213-1.44l-.71-4.141a.544.544 0 0 1 .157-.482z"/></g></g></svg>