<svg xmlns="http://www.w3.org/2000/svg" width="27" height="27" viewBox="0 0 27 27"><g><g><g><g><g><g><path fill="#63d544" d="M3.277 20.927h3.214c.852 0 1.572.723 1.59 1.585-.017.866-.734 1.591-1.58 1.591H3.277zm0-5.395h2.189a1.398 1.398 0 0 1 1.314 1.87 1.4 1.4 0 0 1-1.314.922c-.036 0-.07.003-.105.006H3.276zm3.224 11.169c2.261 0 4.107-1.824 4.175-4.092l.003-.064v-.033-.032c0-.022-.002-.043-.003-.065a4.22 4.22 0 0 0-1.833-3.356 3.963 3.963 0 0 0 .616-2.13 3.998 3.998 0 0 0-3.993-3.994H1.978c-.717 0-1.298.581-1.298 1.298v11.169c0 .717.581 1.299 1.298 1.299z"/></g><g><path fill="#63d544" d="M19.909 17.61a2.08 2.08 0 0 1 2.077-2.078 2.08 2.08 0 0 1 2.078 2.078v4.415a2.08 2.08 0 0 1-2.078 2.078 2.08 2.08 0 0 1-2.077-2.078zm2.077 9.09a4.68 4.68 0 0 0 4.675-4.675V17.61a4.68 4.68 0 0 0-4.675-4.675 4.68 4.68 0 0 0-4.675 4.675v4.415a4.68 4.68 0 0 0 4.675 4.676z"/></g><g><path fill="#63d544" d="M13.415 26.765c.717 0 1.299-.581 1.299-1.298 0 0-.65-9.226.8-11.618 1.449-2.391-1.182-2.166-1.73-2.082-.55.085-1.412 1.879-1.83 5.304-.416 3.425.163 8.396.163 8.396 0 .717.581 1.298 1.298 1.298z"/></g></g></g></g><g><path fill="#63d544" d="M15.702 6.669c1.485-2.133 4.303-3.118 5.86-3.516.163 1.605.212 4.606-1.284 6.755-.882 1.267-1.727 1.544-2.285 1.643-.596.105-1.038.096-1.36.048.905-1.339 2.421-3.054 2.437-3.071a1.131 1.131 0 0 0-1.694-1.5c-.06.068-1.354 1.531-2.332 2.895a2.728 2.728 0 0 1-.153-.521c-.15-.825.122-1.744.81-2.733zm-2.66 9.337a1.13 1.13 0 0 0 1.503-.547c.008-.014.403-.86.91-1.828.565.2 1.518.397 2.93.148 1.478-.26 2.74-1.128 3.75-2.578 2.528-3.632 1.646-8.782 1.496-9.55l-.001-.011a1.131 1.131 0 0 0-1.275-.962c-.237.033-5.828.846-8.51 4.698-1.045 1.502-1.442 2.993-1.179 4.432.183 1 .651 1.774 1.035 2.303a49.945 49.945 0 0 0-1.206 2.392 1.131 1.131 0 0 0 .548 1.503z"/></g></g></g></svg>