<svg xmlns="http://www.w3.org/2000/svg" width="20" height="21" viewBox="0 0 20 21"><g><g><path fill="#44c123" d="M16.82 12.692H6.137a1.125 1.125 0 0 1-1.124-1.124V5.753l12.933 1.782v4.029c0 .626-.507 1.128-1.124 1.128zm.579 5.524c0 .605-.495 1.096-1.096 1.096a1.1 1.1 0 0 1-1.096-1.096 1.1 1.1 0 0 1 1.096-1.096c.601 0 1.096.49 1.096 1.096zm-8.585 0c0 .605-.494 1.096-1.096 1.096a1.1 1.1 0 0 1-1.096-1.096 1.1 1.1 0 0 1 1.096-1.096c.602 0 1.096.49 1.096 1.096zm-2.678-4.448h10.685c1.211 0 2.2-.988 2.2-2.2V7.057v-.032c0-.008 0-.016-.004-.024 0-.008-.004-.02-.004-.028s-.004-.016-.004-.024c-.004-.008-.004-.016-.008-.028-.004-.008-.004-.016-.008-.024s-.004-.016-.008-.024-.008-.016-.012-.028c-.004-.008-.008-.016-.012-.02l-.012-.023-.012-.02c-.004-.008-.012-.016-.016-.024a.07.07 0 0 0-.016-.02c-.004-.008-.012-.012-.016-.02s-.012-.012-.016-.02-.012-.012-.016-.016l-.02-.02c-.008-.004-.012-.012-.02-.016s-.016-.012-.024-.016l-.02-.012c-.007-.004-.015-.008-.023-.016l-.024-.012-.024-.012-.024-.012c-.008-.004-.016-.004-.024-.008a.074.074 0 0 0-.028-.008c-.008 0-.016-.004-.02-.004-.012-.004-.02-.004-.032-.004-.004 0-.008-.004-.016-.004L5.016 4.67V2.78c0-.02 0-.04-.004-.056 0-.004 0-.007-.004-.015 0-.012-.004-.024-.004-.036l-.008-.032c0-.008-.004-.012-.004-.02l-.012-.036-.004-.016a.119.119 0 0 0-.016-.032c-.004-.004-.004-.012-.008-.016-.004-.008-.008-.016-.016-.024l-.012-.02-.012-.02c-.004-.008-.012-.015-.016-.023l-.011-.012-.024-.024-.012-.012c-.008-.008-.016-.016-.028-.024l-.016-.012c-.008-.008-.016-.012-.024-.02l-.032-.02c-.004-.004-.008-.004-.012-.008l-.052-.024-2.937-1.235a.537.537 0 1 0-.418.992l2.606 1.1v11.789c0 1.116.837 2.04 1.917 2.18-.195.326-.31.709-.31 1.116 0 1.2.976 2.172 2.171 2.172a2.177 2.177 0 0 0 2.172-2.172 2.13 2.13 0 0 0-.299-1.096h4.838a2.142 2.142 0 0 0-.298 1.096c0 1.2.976 2.172 2.172 2.172a2.177 2.177 0 0 0 2.172-2.172 2.177 2.177 0 0 0-2.172-2.172H6.136a1.125 1.125 0 0 1-1.124-1.124v-1.459c.327.191.713.303 1.124.303z"/><path fill="none" stroke="#63d544" stroke-miterlimit="50" d="M16.82 12.692H6.137a1.125 1.125 0 0 1-1.124-1.124V5.753l12.933 1.782v4.029c0 .626-.507 1.128-1.124 1.128zm.579 5.524c0 .605-.495 1.096-1.096 1.096a1.1 1.1 0 0 1-1.096-1.096 1.1 1.1 0 0 1 1.096-1.096c.601 0 1.096.49 1.096 1.096zm-8.585 0c0 .605-.494 1.096-1.096 1.096a1.1 1.1 0 0 1-1.096-1.096 1.1 1.1 0 0 1 1.096-1.096c.602 0 1.096.49 1.096 1.096zm-2.678-4.448h10.685c1.211 0 2.2-.988 2.2-2.2V7.057v-.032c0-.008 0-.016-.004-.024 0-.008-.004-.02-.004-.028s-.004-.016-.004-.024c-.004-.008-.004-.016-.008-.028-.004-.008-.004-.016-.008-.024s-.004-.016-.008-.024-.008-.016-.012-.028c-.004-.008-.008-.016-.012-.02l-.012-.023-.012-.02c-.004-.008-.012-.016-.016-.024a.07.07 0 0 0-.016-.02c-.004-.008-.012-.012-.016-.02s-.012-.012-.016-.02-.012-.012-.016-.016l-.02-.02c-.008-.004-.012-.012-.02-.016s-.016-.012-.024-.016l-.02-.012c-.007-.004-.015-.008-.023-.016l-.024-.012-.024-.012-.024-.012c-.008-.004-.016-.004-.024-.008a.074.074 0 0 0-.028-.008c-.008 0-.016-.004-.02-.004-.012-.004-.02-.004-.032-.004-.004 0-.008-.004-.016-.004L5.016 4.67V2.78c0-.02 0-.04-.004-.056 0-.004 0-.007-.004-.015 0-.012-.004-.024-.004-.036l-.008-.032c0-.008-.004-.012-.004-.02l-.012-.036-.004-.016a.119.119 0 0 0-.016-.032c-.004-.004-.004-.012-.008-.016-.004-.008-.008-.016-.016-.024l-.012-.02-.012-.02c-.004-.008-.012-.015-.016-.023l-.011-.012-.024-.024-.012-.012c-.008-.008-.016-.016-.028-.024l-.016-.012c-.008-.008-.016-.012-.024-.02l-.032-.02c-.004-.004-.008-.004-.012-.008l-.052-.024-2.937-1.235a.537.537 0 1 0-.418.992l2.606 1.1v11.789c0 1.116.837 2.04 1.917 2.18-.195.326-.31.709-.31 1.116 0 1.2.976 2.172 2.171 2.172a2.177 2.177 0 0 0 2.172-2.172 2.13 2.13 0 0 0-.299-1.096h4.838a2.142 2.142 0 0 0-.298 1.096c0 1.2.976 2.172 2.172 2.172a2.177 2.177 0 0 0 2.172-2.172 2.177 2.177 0 0 0-2.172-2.172H6.136a1.125 1.125 0 0 1-1.124-1.124v-1.459c.327.191.713.303 1.124.303z"/></g></g></svg>