<svg xmlns="http://www.w3.org/2000/svg" width="17" height="26" viewBox="0 0 17 26"><g><g><g><g><g><path fill="#909192" d="M15.62 24.077c0 .325-.286.589-.638.589-.35 0-.637-.264-.637-.589v-8.03h1.274zm-2.517-9.216c-.044 0-.079-.032-.079-.073V7.022c0-2.052.952-3.95 2.595-5.26v13.1zm3.8.59V.668l-.005.002a.554.554 0 0 0-.09-.389.673.673 0 0 0-.884-.192c-2.62 1.495-4.183 4.087-4.184 6.93v7.769c0 .682.59 1.237 1.322 1.257v8.032c0 .979.861 1.775 1.92 1.775 1.06 0 1.921-.796 1.921-1.775v-8.623-.003z"/></g></g></g><g><g><g><path fill="#909192" d="M6.509 9.179c0 .313-.276.567-.614.567h-2.55-.778c-.339 0-.614-.254-.614-.567v-.662H6.51zM5.087 24.331a1.207 1.207 0 0 1-.856.344c-.328 0-.632-.122-.856-.344a1.024 1.024 0 0 1-.313-.81l.906-12.589h.526L5.4 23.52c.022.302-.09.59-.313.811zM7.15.001c-.355 0-.642.265-.642.592v6.738H4.873V.593C4.873.266 4.585 0 4.23 0c-.355 0-.642.266-.642.593v6.738H1.953V.593C1.953.266 1.666 0 1.311 0 .956 0 .669.266.669.593V9.18c0 .967.851 1.753 1.898 1.753h.114l-.9 12.51a2.175 2.175 0 0 0 .656 1.7c.463.457 1.117.719 1.794.719s1.33-.262 1.793-.72a2.175 2.175 0 0 0 .657-1.7l-.9-12.509h.114c1.046 0 1.898-.786 1.898-1.753V.593C7.793.266 7.505 0 7.15 0z"/></g></g></g></g></g></svg>