<svg xmlns="http://www.w3.org/2000/svg" width="27" height="26" viewBox="0 0 27 26"><g><g><g><g><path fill="#919293" d="M15.03 4.685V3.578h2.548v1.105c-.846-.1-1.702-.1-2.548.002zm-1.357-2.896c0-.406.33-.737.737-.737h3.788a.737.737 0 0 1 0 1.474H14.41a.738.738 0 0 1-.737-.737zM26.89 14.175a10.65 10.65 0 0 0-3.061-6.46 10.566 10.566 0 0 0-5.198-2.853V3.525a1.792 1.792 0 0 0 1.357-1.736c0-.987-.802-1.79-1.789-1.79H14.41c-.987 0-1.79.803-1.79 1.79 0 .837.58 1.542 1.358 1.736v1.34a10.566 10.566 0 0 0-5.182 2.85c-.323.324-.62.663-.893 1.015l-.04-.002h-3.75a.526.526 0 0 0 0 1.052h3.074a10.549 10.549 0 0 0-.934 2.023H.526a.526.526 0 0 0 0 1.052h5.43a10.699 10.699 0 0 0-.261 2.023H3.368a.526.526 0 0 0 0 1.052H5.71c.045.681.154 1.359.329 2.023H2.63a.526.526 0 0 0 0 1.052h3.745a10.567 10.567 0 0 0 2.42 3.743 10.649 10.649 0 0 0 7.508 3.113c2.054 0 4.08-.595 5.8-1.715a.526.526 0 0 0-.573-.882c-3.766 2.452-8.808 1.922-11.99-1.26-3.735-3.734-3.735-9.81 0-13.544 3.733-3.734 9.809-3.734 13.543 0 3.178 3.178 3.711 8.217 1.267 11.98a.526.526 0 0 0 .883.573 10.663 10.663 0 0 0 1.655-6.838z"/></g><g><path fill="#919293" d="M23.456 21.85a.53.53 0 0 0-.526.526.528.528 0 0 0 .526.526.529.529 0 0 0 .526-.526.53.53 0 0 0-.526-.527z"/></g><g><path fill="#919293" d="M16.312 22.342c-3.92 0-7.11-3.19-7.11-7.11 0-3.92 3.19-7.11 7.11-7.11 3.92 0 7.11 3.19 7.11 7.11 0 3.92-3.19 7.11-7.11 7.11zm0-15.273c-4.5 0-8.163 3.662-8.163 8.163 0 4.5 3.662 8.163 8.163 8.163s8.163-3.662 8.163-8.163-3.662-8.163-8.163-8.163z"/></g><g><path fill="#919293" d="M16.312 15.815a.583.583 0 1 1 .001-1.167.583.583 0 0 1-.001 1.167zm3.329-4.656l-2.607 2.606a1.626 1.626 0 0 0-1.444 0L14.423 12.6a.526.526 0 0 0-.744.744l1.167 1.167a1.637 1.637 0 0 0 1.466 2.357 1.637 1.637 0 0 0 1.466-2.357l2.53-2.53.077-.077a.526.526 0 0 0-.744-.744z"/></g><g><path fill="#919293" d="M21.938 14.712h-.487a.526.526 0 0 0 0 1.052h.487a.526.526 0 1 0 0-1.052z"/></g><g><path fill="#919293" d="M11.174 14.7h-.488a.526.526 0 0 0 0 1.052h.488a.526.526 0 0 0 0-1.053z"/></g><g><path fill="#919293" d="M16.318 10.62c.291 0 .527-.236.527-.527v-.487a.526.526 0 0 0-1.053 0v.487c0 .29.236.526.526.526z"/></g><g><path fill="#919293" d="M16.306 19.844a.526.526 0 0 0-.527.526v.488a.526.526 0 0 0 1.053 0v-.488a.526.526 0 0 0-.526-.526z"/></g><g><path fill="#919293" d="M.526 17.952A.53.53 0 0 0 0 18.48a.529.529 0 0 0 .526.526.53.53 0 0 0 .526-.526.53.53 0 0 0-.526-.527z"/></g></g></g></g></svg>