<svg xmlns="http://www.w3.org/2000/svg" width="32" height="32" viewBox="0 0 32 32"><g><g><g><g><g><path fill="#63d544" d="M24.592 4.965a1.97 1.97 0 0 1 1.967-1.968 1.97 1.97 0 0 1 1.968 1.968v4.18a1.97 1.97 0 0 1-1.968 1.967 1.97 1.97 0 0 1-1.967-1.967zm1.967 8.607a4.431 4.431 0 0 0 4.427-4.427v-4.18A4.431 4.431 0 0 0 26.559.538a4.431 4.431 0 0 0-4.426 4.427v4.18a4.431 4.431 0 0 0 4.426 4.427z"/></g><g><path fill="#63d544" d="M16.046 13.572c2.063 0 3.835-1.401 4.308-3.406a1.23 1.23 0 0 0-2.393-.566 1.959 1.959 0 0 1-1.915 1.513 1.97 1.97 0 0 1-1.967-1.968v-4.18a1.97 1.97 0 0 1 1.967-1.968c.957 0 1.75.63 1.93 1.531a1.23 1.23 0 0 0 2.412-.48 4.342 4.342 0 0 0-1.53-2.526 4.486 4.486 0 0 0-2.812-.984 4.431 4.431 0 0 0-4.426 4.427v4.18a4.432 4.432 0 0 0 4.426 4.427z"/></g><g><path fill="#63d544" d="M5.534 2.997c.92 0 1.688.582 1.905 1.427v1.032H3.566v-.491a1.97 1.97 0 0 1 1.968-1.968zm4.085 7.854a1.23 1.23 0 0 0-2.269-.948 1.964 1.964 0 0 1-1.816 1.21 1.97 1.97 0 0 1-1.968-1.968v-1.23H8.67c.68 0 1.23-.55 1.23-1.229V4.288c0-.08-.008-.16-.024-.24a4.343 4.343 0 0 0-1.529-2.526A4.486 4.486 0 0 0 5.534.538a4.431 4.431 0 0 0-4.427 4.427v4.18c0 2.438 1.99 4.422 4.427 4.427a4.417 4.417 0 0 0 4.085-2.721zm-4.085 2.72h-.01.01z"/></g><g><path fill="#63d544" d="M11.44 23.771a58.836 58.836 0 0 0-4.163-3.594 1.23 1.23 0 0 0-1.523 1.93 55.17 55.17 0 0 1 4.318 3.764c-.596.199-1.305.298-1.706.298-1.03 0-2.013-.484-3.009-1.48-2.186-2.186-2.727-5.718-2.857-7.568 1.849.127 5.369.664 7.564 2.86 1.002 1.001 1.485 1.983 1.479 3a3.353 3.353 0 0 1-.103.79zm20.098-7.858v-.022a1.23 1.23 0 0 0-1.183-1.263c-.276-.01-6.798-.206-10.618 3.614-1.47 1.47-2.21 3.07-2.2 4.754.008 1.106.345 2.034.656 2.7a32.33 32.33 0 0 0-2.423 2.898 32.31 32.31 0 0 0-2.424-2.898c.312-.666.649-1.594.656-2.7.01-1.685-.73-3.284-2.2-4.754-3.819-3.82-10.342-3.625-10.617-3.614a1.228 1.228 0 0 0-1.183 1.256c-.017.778-.033 6.895 3.616 10.545 1.46 1.46 3.057 2.2 4.748 2.2.023 0 2.021-.013 3.518-.884 2.004 2.213 2.747 3.577 2.766 3.612.215.41.63.647 1.062.657.03.002.059.004.088.004.443 0 .87-.24 1.09-.66.02-.04 2.112-3.9 8.895-9.25a1.23 1.23 0 1 0-1.523-1.931A58.891 58.891 0 0 0 20.1 23.77a3.363 3.363 0 0 1-.103-.79c-.007-1.017.477-1.999 1.479-3 2.184-2.185 5.711-2.727 7.563-2.858-.13 1.852-.671 5.382-2.857 7.567-.531.531-1.072.924-1.607 1.167a1.23 1.23 0 1 0 1.017 2.239c.805-.365 1.588-.926 2.329-1.667 3.608-3.609 3.634-9.63 3.617-10.516z"/></g></g></g></g></g></svg>