<svg xmlns="http://www.w3.org/2000/svg" width="16" height="15" viewBox="0 0 16 15"><g><g><path fill="#f6e545" d="M15.356 6.815c.309-.3.418-.743.285-1.154a1.119 1.119 0 0 0-.91-.766l-3.8-.552a.496.496 0 0 1-.374-.272L8.857.627A1.119 1.119 0 0 0 7.849 0c-.431 0-.819.24-1.01.627L5.14 4.071a.497.497 0 0 1-.374.272l-3.8.552a1.119 1.119 0 0 0-.91.767c-.133.41-.024.852.285 1.153l2.75 2.68c.117.115.17.28.143.441l-.649 3.785c-.057.333.03.657.246.913.335.398.92.52 1.388.273l3.399-1.787a.509.509 0 0 1 .462 0l3.4 1.787c.165.087.341.131.523.131a1.129 1.129 0 0 0 1.11-1.317l-.65-3.785a.497.497 0 0 1 .144-.44z"/></g></g></svg>