<svg xmlns="http://www.w3.org/2000/svg" width="19" height="17" viewBox="0 0 19 17"><g><g><path fill="none" stroke="#f6e545" stroke-miterlimit="50" stroke-width="2" d="M17.176 7.815c.31-.3.418-.743.285-1.154a1.119 1.119 0 0 0-.91-.766l-3.8-.552a.496.496 0 0 1-.374-.272l-1.7-3.444A1.119 1.119 0 0 0 9.669 1c-.43 0-.818.24-1.009.627l-1.7 3.444a.497.497 0 0 1-.374.272l-3.8.552a1.119 1.119 0 0 0-.91.767c-.133.41-.024.852.285 1.153l2.75 2.68c.117.115.171.28.143.441l-.648 3.785c-.058.333.03.657.245.913.335.398.92.52 1.388.273l3.399-1.787a.509.509 0 0 1 .463 0l3.399 1.787c.165.087.342.131.524.131a1.129 1.129 0 0 0 1.109-1.317l-.65-3.785a.497.497 0 0 1 .144-.44z"/></g></g></svg>